<?xml version="1.0" encoding="utf-8"?>
<svg xmlns="http://www.w3.org/2000/svg" style="margin: auto; background: rgb(237, 174, 73); display: block; shape-rendering: auto;" width="286" height="71" preserveAspectRatio="xMidYMid">
<style type="text/css">
  text {
    text-anchor: middle; font-size: 46px; opacity: 0;
  }
</style>
<g style="transform-origin: 143px 35.5px; transform: scale(0.575);">
<g transform="translate(143,35.5)">
  <g transform="translate(0,0)"><g class="path" style="transform: matrix(0.01, 0, 0, 0.01, 0, 0); transform-origin: -204.12px 0.763838px; animation: 1s linear 0s 1 normal forwards running bounce-in-7365128b-a3bf-4b20-9621-fe279e3cdcae;"><path d="M16.80-10.88L16.80-10.88L16.80-10.88Q16.80 1.12 24.56 4.96L24.56 4.96L24.56 4.96Q26.48 5.20 29.64 5.20L29.64 5.20L29.64 5.20Q32.80 5.20 36.32 4L36.32 4L36.32 4Q39.84 2.80 41.76 1.04L41.76 1.04L41.76 1.04Q45.84-2.72 46.88-5.44L46.88-5.44L47.28-6.64L48.88-6L48.88-6Q48.32-4.16 46.72-1.76L46.72-1.76L46.72-1.76Q45.12 0.64 43.08 2.32L43.08 2.32L43.08 2.32Q41.04 4 37.16 5.40L37.16 5.40L37.16 5.40Q33.28 6.80 28.56 6.80L28.56 6.80L28.56 6.80Q18.48 6.80 12.92 0.96L12.92 0.96L12.92 0.96Q7.36-4.88 7.36-15.52L7.36-15.52L7.36-15.52Q7.36-30 16.72-39.36L16.72-39.36L16.72-39.36Q26.08-48.72 41.28-48.72L41.28-48.72L41.28-48.72Q48.32-48.72 51.44-46.20L51.44-46.20L51.44-46.20Q54.56-43.68 54.56-38.32L54.56-38.32L54.56-38.32Q54.56-34.72 51.04-29.44L51.04-29.44L51.04-29.44Q47.84-24.32 47.84-21.44L47.84-21.44L46.08-21.44L46.08-21.44Q46.08-23.04 46.72-24.88L46.72-24.88L46.72-24.88Q47.36-26.72 47.84-27.52L47.84-27.52L47.84-27.52Q48.32-28.32 49.60-30.40L49.60-30.40L49.60-30.40Q52.72-35.12 52.72-38.16L52.72-38.16L52.72-38.16Q52.72-44.56 47.44-46.24L47.44-46.24L47.44-46.24Q44.96-47.04 42.24-47.04L42.24-47.04L42.24-47.04Q39.52-47.04 36.48-46.72L36.48-46.72L36.48-46.72Q33.68-45.84 31.16-44.44L31.16-44.44L31.16-44.44Q28.64-43.04 25.92-40.20L25.92-40.20L25.92-40.20Q23.20-37.36 21.28-33.60L21.28-33.60L21.28-33.60Q19.36-29.84 18.08-23.96L18.08-23.96L18.08-23.96Q16.80-18.08 16.80-10.88" fill="#222222" stroke="none" stroke-width="none" transform="translate(-235.08001708984375,21.723838562011725)" style="fill: rgb(34, 34, 34);"></path></g><g class="path" style="transform: matrix(0.01, 0, 0, 0.01, 0, 0); transform-origin: -161.64px -3.83616px; animation: 1s linear 0.066s 1 normal forwards running bounce-in-7365128b-a3bf-4b20-9621-fe279e3cdcae;"><path d="M86.24-0.88L86.24-0.88L86.24-0.88Q88.16-0.88 90.24-3.12L90.24-3.12L91.44-2.16L91.44-2.16Q90.88-1.04 88.96-0.16L88.96-0.16L88.96-0.16Q87.04 0.72 84.72 0.72L84.72 0.72L84.72 0.72Q77.44 0.72 77.44-5.84L77.44-5.84L77.44-5.84Q77.44-8.64 78.88-15.84L78.88-15.84L78.88-15.84Q80.32-23.04 80.32-25.28L80.32-25.28L80.32-25.28Q80.32-28.72 77.04-28.72L77.04-28.72L77.04-28.72Q74.32-28.72 71.80-25.04L71.80-25.04L71.80-25.04Q69.28-21.36 67.68-15.04L67.68-15.04L65.04 0L55.44 0L64.32-50.24L64.32-50.24Q61.92-50 60.32-48L60.32-48L59.12-48.96L59.12-48.96Q61.52-51.84 65.16-51.84L65.16-51.84L65.16-51.84Q68.80-51.84 70.80-50L70.80-50L70.80-50Q72.80-48.16 72.80-44.80L72.80-44.80L72.80-44.80Q72.80-44.16 72.64-42.72L72.64-42.72L69.28-23.76L69.28-23.76Q72.56-31.12 79.44-31.12L79.44-31.12L79.44-31.12Q84.16-31.12 86.80-28.44L86.80-28.44L86.80-28.44Q89.44-25.76 89.44-21.04L89.44-21.04L89.44-21.04Q89.44-18.56 87.92-11.48L87.92-11.48L87.92-11.48Q86.40-4.40 86.24-0.88" fill="#222222" stroke="none" stroke-width="none" transform="translate(-235.08001708984375,21.723838562011725)" style="fill: rgb(34, 34, 34);"></path></g><g class="path" style="transform: matrix(0.01, 0, 0, 0.01, 0, 0); transform-origin: -122.6px 6.52384px; animation: 1s linear 0.132s 1 normal forwards running bounce-in-7365128b-a3bf-4b20-9621-fe279e3cdcae;"><path d="M123.44 0.72L123.44 0.72L123.44 0.72Q116.40 0.72 115.76-5.44L115.76-5.44L115.76-5.44Q112.24 0.72 106.88 0.72L106.88 0.72L106.88 0.72Q101.52 0.72 98.36-2.52L98.36-2.52L98.36-2.52Q95.20-5.76 95.20-11.60L95.20-11.60L95.20-11.60Q95.20-20.72 99.68-25.92L99.68-25.92L99.68-25.92Q104.16-31.12 111.28-31.12L111.28-31.12L111.28-31.12Q117.12-31.12 119.04-25.60L119.04-25.60L119.04-25.60Q119.44-28 119.92-30.40L119.92-30.40L119.92-30.40Q125.84-30.40 128.72-30.88L128.72-30.88L129.76-31.12L124.24-0.88L124.24-0.88Q126.64-1.12 128.24-3.12L128.24-3.12L129.44-2.16L129.44-2.16Q127.04 0.72 123.44 0.72zM104.24-7.52L104.24-7.52Q104.24-3.92 105.16-2.52L105.16-2.52L105.16-2.52Q106.08-1.12 108-1.12L108-1.12L108-1.12Q109.92-1.12 111.92-3.20L111.92-3.20L111.92-3.20Q114.56-5.92 116.16-10.08L116.16-10.08L116.16-10.08Q116.40-11.12 117.08-15.08L117.08-15.08L117.08-15.08Q117.76-19.04 118.24-21.60L118.24-21.60L118.24-21.60Q118-24.64 116.56-26.88L116.56-26.88L116.56-26.88Q115.12-29.12 112.96-29.12L112.96-29.12L112.96-29.12Q109.04-29.12 106.64-22.12L106.64-22.12L106.64-22.12Q104.24-15.12 104.24-7.52L104.24-7.52" fill="#222222" stroke="none" stroke-width="none" transform="translate(-235.08001708984375,21.723838562011725)" style="fill: rgb(34, 34, 34);"></path></g><g class="path" style="transform: matrix(0.01, 0, 0, 0.01, 0, 0); transform-origin: -82.96px 6.52384px; animation: 1s linear 0.198s 1 normal forwards running bounce-in-7365128b-a3bf-4b20-9621-fe279e3cdcae;"><path d="M164.88-0.88L164.88-0.88L164.88-0.88Q166.80-0.88 168.88-3.12L168.88-3.12L170.08-2.16L170.08-2.16Q169.52-1.04 167.60-0.16L167.60-0.16L167.60-0.16Q165.68 0.72 163.36 0.72L163.36 0.72L163.36 0.72Q156.08 0.72 156.08-5.84L156.08-5.84L156.08-5.84Q156.08-8.64 157.52-15.84L157.52-15.84L157.52-15.84Q158.96-23.04 158.96-25.28L158.96-25.28L158.96-25.28Q158.96-28.72 155.68-28.72L155.68-28.72L155.68-28.72Q153.04-28.72 150.60-25.28L150.60-25.28L150.60-25.28Q148.16-21.84 146.56-15.84L146.56-15.84L143.84-0.88L143.84-0.88Q146.32-1.12 147.92-3.12L147.92-3.12L149.12-2.16L149.12-2.16Q146.72 0.72 143.12 0.72L143.12 0.72L143.12 0.72Q139.52 0.72 137.48-1.12L137.48-1.12L137.48-1.12Q135.44-2.96 135.44-5.92L135.44-5.92L135.44-5.92Q135.44-7.04 136.72-14.72L136.72-14.72L139.36-29.52L139.36-29.52Q136.96-29.28 135.36-27.28L135.36-27.28L134.16-28.24L134.16-28.24Q136.56-31.12 140.20-31.12L140.20-31.12L140.20-31.12Q143.84-31.12 145.84-29.28L145.84-29.28L145.84-29.28Q147.84-27.44 147.84-24.08L147.84-24.08L147.84-23.60L147.84-23.60Q151.12-31.12 158.08-31.12L158.08-31.12L158.08-31.12Q162.80-31.12 165.44-28.44L165.44-28.44L165.44-28.44Q168.08-25.76 168.08-21.04L168.08-21.04L168.08-21.04Q168.08-18.56 166.56-11.48L166.56-11.48L166.56-11.48Q165.04-4.40 164.88-0.88" fill="#222222" stroke="none" stroke-width="none" transform="translate(-235.08001708984375,21.723838562011725)" style="fill: rgb(34, 34, 34);"></path></g><g class="path" style="transform: matrix(0.01, 0, 0, 0.01, 0, 0); transform-origin: 7.95998px 3.68384px; animation: 1s linear 0.264s 1 normal forwards running bounce-in-7365128b-a3bf-4b20-9621-fe279e3cdcae;"><path d="M280.32 8.96L280.32 8.96L280.32 8.96Q285.60 8.96 287.52 3.12L287.52 3.12L289.28 3.12L289.28 3.12Q289.20 3.44 289.08 4L289.08 4L289.08 4Q288.96 4.56 288.16 6L288.16 6L288.16 6Q287.36 7.44 286.16 8.56L286.16 8.56L286.16 8.56Q284.96 9.68 282.52 10.56L282.52 10.56L282.52 10.56Q280.08 11.44 276.96 11.44L276.96 11.44L276.96 11.44Q270.24 11.44 266.08 8.12L266.08 8.12L266.08 8.12Q261.92 4.80 259.04-1.92L259.04-1.92L247.92-31.44L239.84-16.72L239.84-16.72Q231.12-0.40 223.52 6.16L223.52 6.16L223.52 6.16Q215.92 12.72 205.60 12.72L205.60 12.72L205.60 12.72Q197.36 12.72 191.92 6.88L191.92 6.88L191.92 6.88Q187.68 2.16 187.68-4.72L187.68-4.72L187.68-4.72Q187.68-5.92 187.84-7.20L187.84-7.20L189.36-6.96L189.36-6.96Q189.28-5.92 189.28-4.88L189.28-4.88L189.28-4.88Q189.28 1.44 193.04 5.76L193.04 5.76L193.04 5.76Q197.76 11.12 205.60 11.12L205.60 11.12L205.60 11.12Q215.36 11.12 222.72 4.72L222.72 4.72L222.72 4.72Q230.08-1.68 238.56-17.52L238.56-17.52L252.16-42.32L252.16-42.32Q243.92-42.48 236.56-44.84L236.56-44.84L236.56-44.84Q229.20-47.20 223.12-47.20L223.12-47.20L223.12-47.20Q217.04-47.20 213-43.04L213-43.04L213-43.04Q208.96-38.88 208.96-32.24L208.96-32.24L207.44-32.24L207.44-32.24Q207.44-39.52 211.92-44.16L211.92-44.16L211.92-44.16Q216.40-48.80 223.44-48.80L223.44-48.80L223.44-48.80Q229.04-48.80 237.08-46.36L237.08-46.36L237.08-46.36Q245.12-43.92 254.32-43.92L254.32-43.92L267.12-9.12L267.12-9.12Q273.52-19.28 277.56-26.48L277.56-26.48L277.56-26.48Q281.60-33.68 284.04-37.44L284.04-37.44L284.04-37.44Q286.48-41.20 288.40-43.20L288.40-43.20L288.40-43.20Q292.80-47.68 298.40-47.68L298.40-47.68L298.40-46.08L298.40-46.08Q295.28-46.08 292.68-44.44L292.68-44.44L292.68-44.44Q290.08-42.80 287.24-38.92L287.24-38.92L287.24-38.92Q284.40-35.04 282.08-31.12L282.08-31.12L282.08-31.12Q279.76-27.20 275.60-20.04L275.60-20.04L275.60-20.04Q271.44-12.88 267.84-7.28L267.84-7.28L267.84-7.28Q270.16-1.60 271.88 1.76L271.88 1.76L271.88 1.76Q273.60 5.12 275.48 7.04L275.48 7.04L275.48 7.04Q277.36 8.96 280.32 8.96" fill="#222222" stroke="none" stroke-width="none" transform="translate(-235.08001708984375,21.723838562011725)" style="fill: rgb(34, 34, 34);"></path></g><g class="path" style="transform: matrix(0.01, 0, 0, 0.01, 0, 0); transform-origin: 74.92px 13.5238px; animation: 1s linear 0.33s 1 normal forwards running bounce-in-7365128b-a3bf-4b20-9621-fe279e3cdcae;"><path d="M320.16 8.72L320.16 8.72L320.16 8.72Q323.04 8.72 325.12 6.48L325.12 6.48L326.24 7.44L326.24 7.44Q324.32 10.16 320.16 10.16L320.16 10.16L320.16 10.16Q318.40 10.16 316.56 9.76L316.56 9.76L316.56 9.76Q311.12 14.72 302.64 14.72L302.64 14.72L302.64 14.72Q297.60 14.72 294.84 13L294.84 13L294.84 13Q292.08 11.28 292.08 8.52L292.08 8.52L292.08 8.52Q292.08 5.76 293.80 4.12L293.80 4.12L293.80 4.12Q295.52 2.48 299.92 2.48L299.92 2.48L299.92 2.48Q304.32 2.48 311.52 6.08L311.52 6.08L314-7.20L314-7.20Q310.40-0.56 304.72-0.56L304.72-0.56L304.72-0.56Q293.84-0.56 293.84-11.28L293.84-11.28L293.84-11.28Q293.84-20.24 298.36-25.68L298.36-25.68L298.36-25.68Q302.88-31.12 309.92-31.12L309.92-31.12L309.92-31.12Q314-31.12 316.24-28.64L316.24-28.64L316.24-28.64Q316.88-27.92 317.52-26.48L317.52-26.48L318.24-30.40L318.24-30.40Q324.16-30.40 326.88-30.88L326.88-30.88L327.92-31.12L322.64-1.60L322.64-1.60Q321.44 4.64 317.84 8.48L317.84 8.48L317.84 8.48Q318.88 8.72 320.16 8.72zM302.88-8.80L302.88-8.80Q302.88-5.12 303.60-3.88L303.60-3.88L303.60-3.88Q304.32-2.64 306.32-2.64L306.32-2.64L306.32-2.64Q308.32-2.64 310.40-4.80L310.40-4.80L310.40-4.80Q312.48-6.96 313.40-8.84L313.40-8.84L313.40-8.84Q314.32-10.72 314.96-12.48L314.96-12.48L316.64-21.68L316.64-22.24L316.64-22.24Q316.64-29.60 309.92-29.60L309.92-29.60L309.92-29.60Q307.36-29.60 305.12-22.64L305.12-22.64L305.12-22.64Q302.88-15.68 302.88-8.80L302.88-8.80zM302.32 13.12L302.32 13.12L302.32 13.12Q308.72 13.12 310.96 7.60L310.96 7.60L309.84 7.04L309.84 7.04Q308.88 6.56 308.68 6.44L308.68 6.44L308.68 6.44Q308.48 6.32 307.60 5.92L307.60 5.92L307.60 5.92Q306.72 5.52 306.32 5.40L306.32 5.40L306.32 5.40Q305.92 5.28 305.08 4.96L305.08 4.96L305.08 4.96Q304.24 4.64 303.68 4.52L303.68 4.52L303.68 4.52Q303.12 4.40 302.40 4.24L302.40 4.24L302.40 4.24Q301.20 4 298.88 4L298.88 4L298.88 4Q296.56 4 295.16 5.12L295.16 5.12L295.16 5.12Q293.76 6.24 293.76 8.40L293.76 8.40L293.76 8.40Q293.76 10.56 296.08 11.84L296.08 11.84L296.08 11.84Q298.40 13.12 302.32 13.12" fill="#222222" stroke="none" stroke-width="none" transform="translate(-235.08001708984375,21.723838562011725)" style="fill: rgb(34, 34, 34);"></path></g><g class="path" style="transform: matrix(0.01, 0, 0, 0.01, 0, 0); transform-origin: 113.6px 6.52384px; animation: 1s linear 0.396s 1 normal forwards running bounce-in-7365128b-a3bf-4b20-9621-fe279e3cdcae;"><path d="M336-29.52L336-29.52L336-29.52Q334.08-29.52 332-27.28L332-27.28L330.80-28.24L330.80-28.24Q331.36-29.36 333.28-30.24L333.28-30.24L333.28-30.24Q335.20-31.12 337.52-31.12L337.52-31.12L337.52-31.12Q344.80-31.12 344.80-24.56L344.80-24.56L344.80-24.56Q344.80-21.76 343.36-14.56L343.36-14.56L343.36-14.56Q341.92-7.36 341.92-5.12L341.92-5.12L341.92-5.12Q341.92-1.68 345.20-1.68L345.20-1.68L345.20-1.68Q347.52-1.68 349.72-4.40L349.72-4.40L349.72-4.40Q351.92-7.12 353.52-11.92L353.52-11.92L356.88-30.40L356.88-30.40Q362.80-30.40 365.52-30.88L365.52-30.88L366.56-31.12L361.20-0.88L361.20-0.88Q363.60-1.12 365.20-3.12L365.20-3.12L366.40-2.16L366.40-2.16Q364 0.72 360.40 0.72L360.40 0.72L360.40 0.72Q356.80 0.72 354.80-1.04L354.80-1.04L354.80-1.04Q352.80-2.80 352.72-6L352.72-6L352.72-6Q349.36 0.72 342.80 0.72L342.80 0.72L342.80 0.72Q338.08 0.72 335.44-1.96L335.44-1.96L335.44-1.96Q332.80-4.64 332.80-9.36L332.80-9.36L332.80-9.36Q332.80-11.84 334.32-18.92L334.32-18.92L334.32-18.92Q335.84-26 336-29.52" fill="#222222" stroke="none" stroke-width="none" transform="translate(-235.08001708984375,21.723838562011725)" style="fill: rgb(34, 34, 34);"></path></g><g class="path" style="transform: matrix(0.01, 0, 0, 0.01, 0, 0); transform-origin: 153.48px 13.5238px; animation: 1s linear 0.462s 1 normal forwards running bounce-in-7365128b-a3bf-4b20-9621-fe279e3cdcae;"><path d="M375.92-29.52L375.92-29.52L375.92-29.52Q374-29.52 371.92-27.28L371.92-27.28L370.72-28.24L370.72-28.24Q371.28-29.36 373.20-30.24L373.20-30.24L373.20-30.24Q375.12-31.12 377.44-31.12L377.44-31.12L377.44-31.12Q384.72-31.12 384.72-24.56L384.72-24.56L384.72-24.56Q384.72-21.76 383.20-15.40L383.20-15.40L383.20-15.40Q381.68-9.04 381.68-6.80L381.68-6.80L381.68-6.80Q381.68-2.96 384.88-2.96L384.88-2.96L384.88-2.96Q387.52-2.96 390.04-6.56L390.04-6.56L390.04-6.56Q392.56-10.16 394.16-16.24L394.16-16.24L396.80-30.40L396.80-30.40Q402.72-30.40 405.44-30.88L405.44-30.88L406.48-31.12L401.44-2.80L401.44-2.80Q400 5.44 394.76 10.08L394.76 10.08L394.76 10.08Q389.52 14.72 381.20 14.72L381.20 14.72L381.20 14.72Q376.16 14.72 373.40 13L373.40 13L373.40 13Q370.64 11.28 370.64 8.52L370.64 8.52L370.64 8.52Q370.64 5.76 372.32 4.12L372.32 4.12L372.32 4.12Q374 2.48 377.08 2.48L377.08 2.48L377.08 2.48Q380.16 2.48 382.80 3.48L382.80 3.48L382.80 3.48Q385.44 4.48 386.64 4.64L386.64 4.64L386.48 6.08L386.48 6.08Q385.12 5.92 382.56 4.96L382.56 4.96L382.56 4.96Q380 4 377.48 4L377.48 4L377.48 4Q374.96 4 373.64 5.12L373.64 5.12L373.64 5.12Q372.32 6.24 372.32 8.36L372.32 8.36L372.32 8.36Q372.32 10.48 374.64 11.80L374.64 11.80L374.64 11.80Q376.96 13.12 380.40 13.12L380.40 13.12L380.40 13.12Q388.72 13.12 390.64 3.12L390.64 3.12L392.64-7.92L392.64-7.92Q389.28-0.56 382.48-0.56L382.48-0.56L382.48-0.56Q377.84-0.56 375.32-3.20L375.32-3.20L375.32-3.20Q372.80-5.84 372.80-10.64L372.80-10.64L372.80-10.64Q372.80-13.12 374.28-19.56L374.28-19.56L374.28-19.56Q375.76-26 375.92-29.52" fill="#222222" stroke="none" stroke-width="none" transform="translate(-235.08001708984375,21.723838562011725)" style="fill: rgb(34, 34, 34);"></path></g><g class="path" style="transform: matrix(0.01, 0, 0, 0.01, 0, 0); transform-origin: 188.28px 6.52384px; animation: 1s linear 0.528s 1 normal forwards running bounce-in-7365128b-a3bf-4b20-9621-fe279e3cdcae;"><path d="M426.88-31.12L426.88-31.12L426.88-31.12Q437.04-31.12 437.04-23.04L437.04-23.04L437.04-23.04Q437.04-18 432.28-15.40L432.28-15.40L432.28-15.40Q427.52-12.80 418.72-12.72L418.72-12.72L418.72-12.72Q418.56-9.84 418.56-8.16L418.56-8.16L418.56-8.16Q418.56-4.56 420.20-2.84L420.20-2.84L420.20-2.84Q421.84-1.12 424.32-1.12L424.32-1.12L424.32-1.12Q426.80-1.12 428.84-2.08L428.84-2.08L428.84-2.08Q430.88-3.04 432.08-4.36L432.08-4.36L432.08-4.36Q433.28-5.68 434.16-7.12L434.16-7.12L434.16-7.12Q435.76-9.76 435.76-10.48L435.76-10.48L437.20-9.84L437.20-9.84Q436.96-8.56 435.76-6.44L435.76-6.44L435.76-6.44Q434.56-4.32 433.12-2.96L433.12-2.96L433.12-2.96Q431.68-1.60 428.88-0.44L428.88-0.44L428.88-0.44Q426.08 0.72 422.64 0.72L422.64 0.72L422.64 0.72Q416.16 0.72 412.84-2.36L412.84-2.36L412.84-2.36Q409.52-5.44 409.52-10.80L409.52-10.80L409.52-10.80Q409.52-20.32 414.24-25.72L414.24-25.72L414.24-25.72Q418.96-31.12 426.88-31.12zM435.04-23.04L435.04-23.04Q435.04-25.68 433.48-27.40L433.48-27.40L433.48-27.40Q431.92-29.12 428.84-29.12L428.84-29.12L428.84-29.12Q425.76-29.12 422.84-25.44L422.84-25.44L422.84-25.44Q419.92-21.76 418.96-14.56L418.96-14.56L418.96-14.56Q435.04-14.64 435.04-23.04L435.04-23.04" fill="#222222" stroke="none" stroke-width="none" transform="translate(-235.08001708984375,21.723838562011725)" style="fill: rgb(34, 34, 34);"></path></g><g class="path" style="transform: matrix(0.01, 0, 0, 0.01, 0, 0); transform-origin: 224.48px 6.52384px; animation: 1s linear 0.594s 1 normal forwards running bounce-in-7365128b-a3bf-4b20-9621-fe279e3cdcae;"><path d="M472.32-0.88L472.32-0.88L472.32-0.88Q474.24-0.88 476.32-3.12L476.32-3.12L477.52-2.16L477.52-2.16Q476.96-1.04 475.04-0.16L475.04-0.16L475.04-0.16Q473.12 0.72 470.80 0.72L470.80 0.72L470.80 0.72Q463.52 0.72 463.52-5.84L463.52-5.84L463.52-5.84Q463.52-8.64 464.96-15.84L464.96-15.84L464.96-15.84Q466.40-23.04 466.40-25.28L466.40-25.28L466.40-25.28Q466.40-28.72 463.12-28.72L463.12-28.72L463.12-28.72Q460.48-28.72 458.04-25.28L458.04-25.28L458.04-25.28Q455.60-21.84 454-15.84L454-15.84L451.28-0.88L451.28-0.88Q453.76-1.12 455.36-3.12L455.36-3.12L456.56-2.16L456.56-2.16Q454.16 0.72 450.56 0.72L450.56 0.72L450.56 0.72Q446.96 0.72 444.92-1.12L444.92-1.12L444.92-1.12Q442.88-2.96 442.88-5.92L442.88-5.92L442.88-5.92Q442.88-7.04 444.16-14.72L444.16-14.72L446.80-29.52L446.80-29.52Q444.40-29.28 442.80-27.28L442.80-27.28L441.60-28.24L441.60-28.24Q444-31.12 447.64-31.12L447.64-31.12L447.64-31.12Q451.28-31.12 453.28-29.28L453.28-29.28L453.28-29.28Q455.28-27.44 455.28-24.08L455.28-24.08L455.28-23.60L455.28-23.60Q458.56-31.12 465.52-31.12L465.52-31.12L465.52-31.12Q470.24-31.12 472.88-28.44L472.88-28.44L472.88-28.44Q475.52-25.76 475.52-21.04L475.52-21.04L475.52-21.04Q475.52-18.56 474-11.48L474-11.48L474-11.48Q472.48-4.40 472.32-0.88" fill="#222222" stroke="none" stroke-width="none" transform="translate(-235.08001708984375,21.723838562011725)" style="fill: rgb(34, 34, 34);"></path></g></g>
</g>
</g>
<style id="bounce-in-7365128b-a3bf-4b20-9621-fe279e3cdcae" data-anikit="">@keyframes bounce-in-7365128b-a3bf-4b20-9621-fe279e3cdcae
{
  0% {
    animation-timing-function: cubic-bezier(0.0383,0.3388,0.0421,0.6652);
    transform: matrix(0.01,0,0,0.01,0,0);
    opacity: 1;
  }
  4.7% {
    animation-timing-function: cubic-bezier(0.3296,0.3336,0.5772,0.6672);
    transform: matrix(0.556,0,0,0.556,0,0);
    opacity: 1;
  }
  8.4% {
    animation-timing-function: cubic-bezier(0.0781,0.1617,0.0874,0.9301);
    transform: matrix(0.979,0,0,0.979,0,0);
    opacity: 1;
  }
  12.4% {
    animation-timing-function: cubic-bezier(0.8341,0.1496,0.8634,0.7673);
    transform: matrix(1.153,0,0,1.153,0,0);
    opacity: 1;
  }
  16.3% {
    animation-timing-function: cubic-bezier(0.3264,0.3332,0.5758,0.6695);
    transform: matrix(1.008,0,0,1.008,0,0);
    opacity: 1;
  }
  21.2% {
    animation-timing-function: cubic-bezier(0.0921,0.1883,0.3277,1);
    transform: matrix(0.704,0,0,0.704,0,0);
    opacity: 1;
  }
  24.5% {
    animation-timing-function: cubic-bezier(0.6905,0.0944,0.8759,0.7624);
    transform: matrix(0.626,0,0,0.626,0,0);
    opacity: 1;
  }
  27.7% {
    animation-timing-function: cubic-bezier(0.3688,0.332,0.624,0.6684);
    transform: matrix(0.704,0,0,0.704,0,0);
    opacity: 1;
  }
  32.6% {
    animation-timing-function: cubic-bezier(0.1368,0.2364,0.2451,0.9049);
    transform: matrix(0.958,0,0,0.958,0,0);
    opacity: 1;
  }
  37.4% {
    animation-timing-function: cubic-bezier(0.5936,0.0846,0.3495,1);
    transform: matrix(1.085,0,0,1.085,0,0);
    opacity: 1;
  }
  49.5% {
    animation-timing-function: cubic-bezier(0.5522,0.0981,0.3807,1);
    transform: matrix(0.802,0,0,0.802,0,0);
    opacity: 1;
  }
  62.4% {
    animation-timing-function: cubic-bezier(0.4497,0.1349,0.4911,1);
    transform: matrix(1.044,0,0,1.044,0,0);
    opacity: 1;
  }
  74.1% {
    animation-timing-function: cubic-bezier(0.429,0,0.5239,1);
    transform: matrix(0.914,0,0,0.914,0,0);
    opacity: 1;
  }
  87% {
    animation-timing-function: cubic-bezier(0.3501,0,0.6422,1);
    transform: matrix(1.013,0,0,1.013,0,0);
    opacity: 1;
  }
  95.8% {
    animation-timing-function: cubic-bezier(0.3653,0,0.6776,1);
    transform: matrix(0.992,0,0,0.992,0,0);
    opacity: 1;
  }
  100% {
    transform: matrix(1,0,0,1,0,0);
    opacity: 1;
  }
}</style></svg>